<?xml version="1.0" encoding="utf-8"?>
<!-- Generator: Adobe Illustrator 16.0.0, SVG Export Plug-In . SVG Version: 6.00 Build 0)  -->
<!DOCTYPE svg PUBLIC "-//W3C//DTD SVG 1.1//EN" "http://www.w3.org/Graphics/SVG/1.1/DTD/svg11.dtd">
<svg version="1.1" id="Layer_1" xmlns="http://www.w3.org/2000/svg" xmlns:xlink="http://www.w3.org/1999/xlink" x="0px" y="0px"
	 width="247px" height="125.84px" viewBox="0 0 247 125.84" enable-background="new 0 0 247 125.84" xml:space="preserve">
<g>
	<g>
		<g>
			<path fill="#FFFFFF" d="M11.785,79.867l0.244,5.372h-1.222c-0.642-1.771-1.371-3.007-2.19-3.708
				c-0.819-0.702-1.81-1.053-2.97-1.053c-0.986,0-1.801,0.304-2.442,0.911c-0.641,0.606-0.962,1.308-0.962,2.104
				c0,0.985,0.337,1.662,1.008,2.03c0.672,0.368,1.827,0.722,3.465,1.062c2.513,0.531,4.2,1.326,5.061,2.385s1.29,2.403,1.29,4.034
				c0,1.919-0.566,3.574-1.702,4.966c-1.135,1.392-2.725,2.088-4.771,2.088c-1.455,0-2.768-0.447-3.938-1.343
				c-0.57,0.438-1.084,0.865-1.542,1.283H0.092v-5.836h1.19c0.896,3.284,2.636,4.926,5.221,4.926c1.363,0,2.412-0.394,3.145-1.179
				c0.732-0.786,1.1-1.667,1.1-2.642c0-0.548-0.161-1.04-0.481-1.478c-0.32-0.438-0.694-0.786-1.122-1.045s-1.607-0.584-3.54-0.976
				s-3.351-1.119-4.252-2.183S0,87.197,0,85.606c0-1.709,0.551-3.155,1.654-4.338c1.102-1.183,2.477-1.775,4.123-1.775
				c1.25,0,2.495,0.429,3.735,1.284c0.396-0.229,0.822-0.532,1.279-0.91H11.785z"/>
			<path fill="#FFFFFF" d="M23.416,92.925v-2.686c0-0.727-0.091-1.239-0.274-1.537c-0.184-0.299-0.651-0.448-1.405-0.448
				c-0.6,0-1.067,0.087-1.403,0.262c-0.336,0.174-0.504,0.351-0.504,0.529c0,0.119,0.12,0.299,0.358,0.537
				c0.239,0.239,0.358,0.537,0.358,0.896c0,0.518-0.198,0.963-0.595,1.336s-0.896,0.56-1.496,0.56c-0.55,0-1.023-0.177-1.42-0.53
				c-0.396-0.353-0.595-0.783-0.595-1.291c0-0.875,0.531-1.619,1.595-2.23s2.536-0.918,4.419-0.918c1.456,0,2.674,0.179,3.657,0.538
				c0.981,0.358,1.473,1.166,1.473,2.421v6.307c0,1.086,0.311,1.629,0.932,1.629c0.173,0,0.411-0.095,0.717-0.284l0.412,0.672
				c-0.865,0.985-1.867,1.478-3.007,1.478c-1.19,0-2.188-0.602-2.993-1.806c-1.332,1.204-2.813,1.806-4.441,1.806
				c-1.1,0-1.964-0.281-2.595-0.845c-0.632-0.563-0.946-1.264-0.946-2.102C15.662,94.556,18.246,93.125,23.416,92.925z
				 M23.416,95.662v-1.946c-1.373,0.05-2.33,0.263-2.87,0.637c-0.538,0.374-0.808,1.001-0.808,1.879
				c0,0.679,0.167,1.213,0.503,1.602c0.336,0.39,0.769,0.584,1.298,0.584c0.6,0,1.063-0.194,1.389-0.584
				C23.254,97.444,23.416,96.72,23.416,95.662z"/>
			<path fill="#FFFFFF" d="M36.712,87.582v3.299h0.062c0.243-1.174,0.646-2.047,1.205-2.619c0.561-0.572,1.181-0.858,1.863-0.858
				c0.66,0,1.2,0.231,1.617,0.694c0.418,0.463,0.626,1.032,0.626,1.708c0,0.578-0.158,1.043-0.474,1.396
				c-0.315,0.354-0.696,0.53-1.145,0.53s-0.831-0.164-1.152-0.492c-0.32-0.329-0.48-0.692-0.48-1.09
				c0-0.497,0.088-0.846,0.267-1.045c0.178-0.199,0.268-0.328,0.268-0.388c0-0.109-0.082-0.164-0.244-0.164
				c-0.51,0-0.995,0.488-1.458,1.464c-0.463,0.977-0.694,2.562-0.694,4.753v4.11h2.274v0.91h-8.029v-0.91h1.587V88.702h-1.587
				v-0.926h2.03c1.078,0,1.872-0.032,2.381-0.097l0.55-0.098H36.712z"/>
			<path fill="#FFFFFF" d="M50.373,87.403v2.537h0.062c1.079-1.691,2.59-2.537,4.534-2.537c0.865,0,1.623,0.179,2.274,0.538
				c0.651,0.358,1.065,0.725,1.244,1.099c0.179,0.373,0.267,0.938,0.267,1.695v8.145h1.741v0.91h-7.679v-0.91h1.771v-8.37
				c0-0.757-0.104-1.25-0.312-1.479c-0.209-0.229-0.502-0.344-0.878-0.344c-0.509,0-1.14,0.313-1.893,0.94
				c-0.754,0.627-1.131,1.728-1.131,3.302v5.951h1.787v0.91h-7.74v-0.91h1.786V88.702h-1.755v-0.926h1.117
				c1.01,0,2.01-0.062,2.999-0.187l1.362-0.187H50.373z"/>
			<path fill="#FFFFFF" d="M67.943,87.403V98.88h1.191v0.91h-6.823v-0.91h1.465V88.702h-1.465v-0.926h1.938
				c1.008,0,1.853-0.062,2.534-0.187C67.465,87.466,67.853,87.403,67.943,87.403z M63.502,82.314c0-0.606,0.216-1.121,0.648-1.545
				c0.433-0.423,0.954-0.634,1.564-0.634c0.621,0,1.153,0.214,1.596,0.642s0.664,0.939,0.664,1.537c0,0.597-0.222,1.111-0.664,1.545
				c-0.442,0.433-0.975,0.648-1.596,0.648c-0.61,0-1.132-0.216-1.564-0.648C63.718,83.426,63.502,82.911,63.502,82.314z"/>
			<path fill="#FFFFFF" d="M79.224,92.925v-2.686c0-0.727-0.091-1.239-0.274-1.537c-0.184-0.299-0.65-0.448-1.404-0.448
				c-0.601,0-1.068,0.087-1.404,0.262c-0.336,0.174-0.504,0.351-0.504,0.529c0,0.119,0.12,0.299,0.359,0.537
				c0.238,0.239,0.357,0.537,0.357,0.896c0,0.518-0.197,0.963-0.594,1.336c-0.397,0.373-0.896,0.56-1.497,0.56
				c-0.55,0-1.022-0.177-1.419-0.53c-0.396-0.353-0.596-0.783-0.596-1.291c0-0.875,0.531-1.619,1.596-2.23
				c1.062-0.611,2.535-0.918,4.418-0.918c1.456,0,2.674,0.179,3.657,0.538c0.981,0.358,1.473,1.166,1.473,2.421v6.307
				c0,1.086,0.311,1.629,0.932,1.629c0.173,0,0.411-0.095,0.717-0.284l0.412,0.672c-0.864,0.985-1.867,1.478-3.007,1.478
				c-1.19,0-2.188-0.602-2.992-1.806c-1.333,1.204-2.814,1.806-4.442,1.806c-1.099,0-1.964-0.281-2.595-0.845
				s-0.946-1.264-0.946-2.102C71.47,94.556,74.055,93.125,79.224,92.925z M79.224,95.662v-1.946c-1.373,0.05-2.33,0.263-2.87,0.637
				c-0.538,0.374-0.808,1.001-0.808,1.879c0,0.679,0.167,1.213,0.503,1.602c0.336,0.39,0.769,0.584,1.298,0.584
				c0.601,0,1.063-0.194,1.389-0.584C79.062,97.444,79.224,96.72,79.224,95.662z"/>
			<path fill="#FFFFFF" d="M107.104,94.193h-6.446l-0.863,2.055c-0.343,0.816-0.515,1.409-0.515,1.778
				c0,0.529,0.51,0.794,1.528,0.794h1.13v0.97h-6.595v-0.97h0.596c0.783,0,1.312-0.13,1.588-0.39c0.274-0.26,0.61-0.862,1.009-1.808
				l7.181-17.219h0.883l7.521,19.416h2.122v0.97h-10.075v-0.97h2.735L107.104,94.193z M101.09,93.164h5.613l-2.697-6.939
				L101.09,93.164z"/>
			<path fill="#FFFFFF" d="M123.736,87.403v2.537h0.061c1.079-1.691,2.59-2.537,4.534-2.537c0.865,0,1.623,0.179,2.274,0.538
				c0.651,0.358,1.066,0.725,1.244,1.099c0.178,0.373,0.268,0.938,0.268,1.695v8.145h1.74v0.91h-7.679v-0.91h1.771v-8.37
				c0-0.757-0.104-1.25-0.312-1.479c-0.209-0.229-0.502-0.344-0.878-0.344c-0.509,0-1.14,0.313-1.893,0.94s-1.13,1.728-1.13,3.302
				v5.951h1.786v0.91h-7.739v-0.91h1.785V88.702h-1.755v-0.926h1.117c1.01,0,2.01-0.062,2.999-0.187l1.363-0.187H123.736z"/>
			<path fill="#FFFFFF" d="M141.154,84.046v3.73h3.083v0.926h-3.083v8.147c0,1.085,0.34,1.627,1.022,1.627
				c0.62,0,1.089-0.542,1.403-1.627h0.947c-0.184,1.135-0.591,1.943-1.221,2.426c-0.632,0.482-1.645,0.724-3.038,0.724
				c-0.998,0-1.732-0.154-2.206-0.463c-0.474-0.308-0.766-0.671-0.878-1.089s-0.168-0.95-0.168-1.598v-8.147h-1.71v-0.926h1.71
				v-3.029L141.154,84.046z"/>
			<path fill="#FFFFFF" d="M152.037,87.403V98.88h1.19v0.91h-6.823v-0.91h1.465V88.702h-1.465v-0.926h1.938
				c1.008,0,1.853-0.062,2.534-0.187C151.559,87.466,151.945,87.403,152.037,87.403z M147.596,82.314
				c0-0.606,0.215-1.121,0.648-1.545c0.433-0.423,0.953-0.634,1.564-0.634c0.62,0,1.152,0.214,1.596,0.642
				c0.442,0.428,0.663,0.939,0.663,1.537c0,0.597-0.221,1.111-0.663,1.545c-0.443,0.433-0.976,0.648-1.596,0.648
				c-0.611,0-1.132-0.216-1.564-0.648C147.811,83.426,147.596,82.911,147.596,82.314z"/>
			<path fill="#FFFFFF" d="M156.814,92h7.541v3.507h-7.541V92z"/>
			<path fill="#FFFFFF" d="M179.306,94.193h-6.446l-0.863,2.055c-0.343,0.816-0.514,1.409-0.514,1.778
				c0,0.529,0.509,0.794,1.527,0.794h1.131v0.97h-6.595v-0.97h0.595c0.784,0,1.313-0.13,1.588-0.39s0.611-0.862,1.009-1.808
				l7.181-17.219h0.883l7.521,19.416h2.121v0.97h-10.075v-0.97h2.735L179.306,94.193z M173.293,93.164h5.613l-2.697-6.939
				L173.293,93.164z"/>
			<path fill="#FFFFFF" d="M201.603,89.254c0.6,0.678,0.9,1.466,0.9,2.363c0,1.286-0.558,2.333-1.672,3.142
				c-1.114,0.807-2.369,1.211-3.763,1.211c-0.377,0-0.794-0.025-1.252-0.075c-0.458-0.049-0.896-0.074-1.312-0.074
				c-0.875,0-1.555,0.151-2.038,0.455s-0.726,0.649-0.726,1.037c0,0.508,0.448,0.761,1.344,0.761c0.631,0,1.526-0.054,2.688-0.163
				c1.159-0.11,2.457-0.165,3.892-0.165c2.769,0,4.152,1.283,4.152,3.851c0,1.9-0.71,3.383-2.13,4.447
				c-1.419,1.064-3.254,1.597-5.503,1.597c-1.812,0-3.265-0.313-4.357-0.939c-1.095-0.628-1.642-1.443-1.642-2.448
				c0-0.776,0.688-1.672,2.061-2.686c-1.272-0.409-1.908-1.368-1.908-2.881c0-1.791,1.013-2.939,3.038-3.447
				c-1.567-0.907-2.351-2.094-2.351-3.559c0-1.106,0.504-2.096,1.512-2.968c1.007-0.872,2.432-1.309,4.273-1.309
				c1.73,0,3.17,0.458,4.32,1.373c0.438-1.164,1.084-1.746,1.939-1.746c0.874,0,1.312,0.487,1.312,1.463
				c0,0.855-0.316,1.283-0.946,1.283c-0.266,0-0.504-0.137-0.718-0.41s-0.423-0.411-0.626-0.411
				C201.938,88.955,201.775,89.056,201.603,89.254z M193.053,101.715c-0.345,0.746-0.518,1.358-0.518,1.836
				c0,1.064,0.409,1.865,1.229,2.403c0.818,0.536,1.885,0.806,3.198,0.806c1.679,0,3.017-0.401,4.015-1.202
				c0.997-0.801,1.496-1.693,1.496-2.679c0-0.896-0.586-1.343-1.756-1.343l-6.411,0.299
				C194.081,101.835,193.664,101.795,193.053,101.715z M196.809,95.209c0.733,0,1.184-0.26,1.352-0.778s0.252-1.495,0.252-2.931
				c0-1.326-0.09-2.224-0.268-2.692s-0.654-0.703-1.428-0.703c-0.621,0-1.045,0.2-1.274,0.599s-0.344,1.456-0.344,3.171
				c0,1.525,0.15,2.462,0.451,2.811C195.85,95.034,196.27,95.209,196.809,95.209z"/>
			<path fill="#FFFFFF" d="M211.891,87.403V98.88h1.19v0.91h-6.824v-0.91h1.466V88.702h-1.466v-0.926h1.939
				c1.007,0,1.852-0.062,2.534-0.187C211.412,87.466,211.799,87.403,211.891,87.403z M207.448,82.314
				c0-0.606,0.216-1.121,0.648-1.545c0.433-0.423,0.954-0.634,1.565-0.634c0.62,0,1.152,0.214,1.595,0.642s0.664,0.939,0.664,1.537
				c0,0.597-0.222,1.111-0.664,1.545c-0.442,0.433-0.975,0.648-1.595,0.648c-0.611,0-1.133-0.216-1.565-0.648
				C207.664,83.426,207.448,82.911,207.448,82.314z"/>
			<path fill="#FFFFFF" d="M220.988,87.403v2.537h0.061c1.079-1.691,2.59-2.537,4.534-2.537c0.864,0,1.623,0.179,2.274,0.538
				c0.651,0.358,1.066,0.725,1.244,1.099c0.178,0.373,0.268,0.938,0.268,1.695v8.145h1.74v0.91h-7.679v-0.91h1.771v-8.37
				c0-0.757-0.104-1.25-0.312-1.479c-0.209-0.229-0.502-0.344-0.878-0.344c-0.509,0-1.14,0.313-1.894,0.94
				c-0.752,0.627-1.129,1.728-1.129,3.302v5.951h1.785v0.91h-7.739v-0.91h1.786V88.702h-1.755v-0.926h1.117
				c1.01,0,2.009-0.062,2.999-0.187l1.362-0.187H220.988z"/>
			<path fill="#FFFFFF" d="M244.222,89.254c0.601,0.678,0.9,1.466,0.9,2.363c0,1.286-0.558,2.333-1.672,3.142
				c-1.114,0.807-2.368,1.211-3.763,1.211c-0.377,0-0.794-0.025-1.252-0.075c-0.458-0.049-0.896-0.074-1.312-0.074
				c-0.875,0-1.555,0.151-2.038,0.455s-0.726,0.649-0.726,1.037c0,0.508,0.448,0.761,1.344,0.761c0.631,0,1.526-0.054,2.688-0.163
				c1.16-0.11,2.457-0.165,3.893-0.165c2.768,0,4.151,1.283,4.151,3.851c0,1.9-0.71,3.383-2.129,4.447
				c-1.42,1.064-3.254,1.597-5.504,1.597c-1.811,0-3.264-0.313-4.357-0.939c-1.095-0.628-1.642-1.443-1.642-2.448
				c0-0.776,0.688-1.672,2.061-2.686c-1.271-0.409-1.908-1.368-1.908-2.881c0-1.791,1.014-2.939,3.039-3.447
				c-1.568-0.907-2.352-2.094-2.352-3.559c0-1.106,0.504-2.096,1.512-2.968c1.007-0.872,2.432-1.309,4.273-1.309
				c1.73,0,3.17,0.458,4.32,1.373c0.438-1.164,1.084-1.746,1.939-1.746c0.874,0,1.312,0.487,1.312,1.463
				c0,0.855-0.316,1.283-0.946,1.283c-0.265,0-0.504-0.137-0.718-0.41s-0.423-0.411-0.626-0.411
				C244.558,88.955,244.395,89.056,244.222,89.254z M235.673,101.715c-0.346,0.746-0.519,1.358-0.519,1.836
				c0,1.064,0.409,1.865,1.229,2.403c0.819,0.536,1.885,0.806,3.198,0.806c1.679,0,3.017-0.401,4.015-1.202
				c0.997-0.801,1.496-1.693,1.496-2.679c0-0.896-0.586-1.343-1.756-1.343l-6.411,0.299
				C236.701,101.835,236.283,101.795,235.673,101.715z M239.428,95.209c0.733,0,1.184-0.26,1.352-0.778s0.252-1.495,0.252-2.931
				c0-1.326-0.09-2.224-0.268-2.692s-0.653-0.703-1.427-0.703c-0.621,0-1.046,0.2-1.275,0.599c-0.229,0.398-0.343,1.456-0.343,3.171
				c0,1.525,0.149,2.462,0.45,2.811C238.469,95.034,238.889,95.209,239.428,95.209z"/>
		</g>
	</g>
	<g>
		<linearGradient id="SVGID_1_" gradientUnits="userSpaceOnUse" x1="99.4443" y1="-20.6528" x2="99.4443" y2="73.6637">
			<stop  offset="0" style="stop-color:#FFFFFB"/>
			<stop  offset="0.5105" style="stop-color:#F0E5D7"/>
			<stop  offset="1" style="stop-color:#DAB67C"/>
		</linearGradient>
		<path fill="url(#SVGID_1_)" d="M78.125,22.63c-1.137-0.421,5.533-0.768,7.609-0.768c2.074,0,5.377,0.309,7.338,0.999
			c1.959,0.695,5.13,2.238,7.07,3.883c1.939,1.641,4.493,4.685,6.187,7.377c1.689,2.688,2.767,6.453,3.534,9.029
			c0.77,2.573,3.037,9.297,4.457,11.755c1.422,2.462,4.956,7.607,6.266,8.609c1.305,1-1.887,0.424-3.269-0.306
			c-1.383-0.731-15.522-7.764-21.439-14.912c-5.917-7.144-5.228-9.833-7.377-13.561C86.348,31.008,83.812,24.744,78.125,22.63z"/>
		<linearGradient id="SVGID_2_" gradientUnits="userSpaceOnUse" x1="88.3394" y1="-20.6577" x2="88.3393" y2="73.6642">
			<stop  offset="0" style="stop-color:#FFFFFB"/>
			<stop  offset="0.5105" style="stop-color:#F0E5D7"/>
			<stop  offset="1" style="stop-color:#DAB67C"/>
		</linearGradient>
		<path fill="url(#SVGID_2_)" d="M116.627,65.284c-1.882,0.197-14.505,0.689-20.866-0.655c-6.357-1.345-15.061-3.92-22.13-3.92
			c-7.072,0-12.721,0.693-14.255,1.344c-1.538,0.654,0.229-1.844,1.033-2.882c0.811-1.037,8.569-10.95,20.791-10.95
			c12.219,0,22.591,12.144,33.198,15.408C115.166,63.82,120.238,64.896,116.627,65.284z"/>
		<linearGradient id="SVGID_3_" gradientUnits="userSpaceOnUse" x1="146.1094" y1="-20.6528" x2="146.1094" y2="73.6637">
			<stop  offset="0" style="stop-color:#FFFFFB"/>
			<stop  offset="0.5105" style="stop-color:#F0E5D7"/>
			<stop  offset="1" style="stop-color:#DAB67C"/>
		</linearGradient>
		<path fill="url(#SVGID_3_)" d="M167.428,22.63c1.139-0.421-5.532-0.768-7.607-0.768c-2.077,0-5.379,0.309-7.339,0.999
			c-1.96,0.695-5.132,2.238-7.069,3.883c-1.941,1.641-4.496,4.685-6.187,7.377c-1.69,2.688-2.766,6.453-3.535,9.029
			c-0.767,2.573-3.034,9.297-4.458,11.755c-1.419,2.462-4.955,7.607-6.263,8.609c-1.305,1,1.884,0.424,3.267-0.306
			c1.384-0.731,15.522-7.764,21.44-14.912c5.919-7.144,5.226-9.833,7.376-13.561C159.207,31.008,161.742,24.744,167.428,22.63z"/>
		<linearGradient id="SVGID_4_" gradientUnits="userSpaceOnUse" x1="157.2148" y1="-20.6577" x2="157.2148" y2="73.6642">
			<stop  offset="0" style="stop-color:#FFFFFB"/>
			<stop  offset="0.5105" style="stop-color:#F0E5D7"/>
			<stop  offset="1" style="stop-color:#DAB67C"/>
		</linearGradient>
		<path fill="url(#SVGID_4_)" d="M128.928,65.284c1.883,0.197,14.505,0.689,20.866-0.655c6.357-1.345,15.061-3.92,22.13-3.92
			c7.07,0,12.719,0.693,14.254,1.344c1.539,0.654-0.229-1.844-1.035-2.882c-0.808-1.037-8.568-10.95-20.788-10.95
			c-12.218,0-22.593,12.144-33.197,15.408C130.389,63.82,125.318,64.896,128.928,65.284z"/>
		<linearGradient id="SVGID_5_" gradientUnits="userSpaceOnUse" x1="122.7773" y1="-20.6548" x2="122.7773" y2="73.6624">
			<stop  offset="0" style="stop-color:#FFFFFB"/>
			<stop  offset="0.5105" style="stop-color:#F0E5D7"/>
			<stop  offset="1" style="stop-color:#DAB67C"/>
		</linearGradient>
		<path fill="url(#SVGID_5_)" d="M122.847,0c0.229,0,1.021,0.288,1.126,2.574c0.089,2.006,2.322,8.376,4.455,14.542
			c2.133,6.17,2.133,6.17,2.133,6.17s2.363,6.28,2.363,12.621c0,9.279-3.346,18.925-8.261,25.764
			c-0.349,0.476-0.709,1.554-0.808,1.958c-0.1,0.412-0.19,1.114-1.036,1.114h-0.083c-0.846,0-0.933-0.705-1.04-1.114
			c-0.104-0.403-0.437-1.441-0.806-1.958c-4.917-6.839-8.261-16.485-8.261-25.764c0-6.341,2.361-12.621,2.361-12.621s0,0,2.136-6.17
			c2.131-6.167,4.349-12.538,4.457-14.542c0.123-2.3,0.915-2.574,1.148-2.574H122.847z"/>
		<linearGradient id="SVGID_6_" gradientUnits="userSpaceOnUse" x1="122.7783" y1="-20.7012" x2="122.7783" y2="73.6649">
			<stop  offset="0" style="stop-color:#FFFFFB"/>
			<stop  offset="0.5105" style="stop-color:#F0E5D7"/>
			<stop  offset="1" style="stop-color:#DAB67C"/>
		</linearGradient>
		<path fill="url(#SVGID_6_)" d="M122.842,71.754c46.626,0,108.641,1.035,110.658,1.1c1.411,0.043,1.383-0.233-0.174-0.46
			c-4.725-0.581-53.023-4.673-110.543-4.673h-0.008c-57.521,0-105.82,4.092-110.545,4.673c-1.557,0.227-1.587,0.503-0.174,0.46
			c2.017-0.063,64.031-1.1,110.658-1.1H122.842z"/>
	</g>
	<rect x="11.079" y="118.616" fill="#D9B67D" width="53.181" height="1.824"/>
	<rect x="181.094" y="118.616" fill="#D9B67D" width="53.375" height="1.824"/>
	<g>
		<path fill="#D9B67D" d="M85.803,109.895l0.096,4.452h-0.772c-0.72-2.723-2.026-4.084-3.918-4.084c-0.862,0-1.48,0.376-1.852,1.128
			c-0.372,0.752-0.558,2.279-0.558,4.583c0,4.282,0.134,6.856,0.404,7.723c0.27,0.867,0.884,1.3,1.843,1.3
			c1.967,0,3.409-1.404,4.33-4.214h0.771l-0.249,4.915h-0.772c-0.237-0.324-0.53-0.688-0.879-1.093
			c-1.036,0.823-2.196,1.235-3.478,1.235c-1.663,0-3.143-0.717-4.44-2.149s-1.947-3.396-1.947-5.889c0-2.47,0.646-4.474,1.94-6.014
			c1.295-1.539,2.899-2.309,4.814-2.309c1.14,0,2.177,0.388,3.11,1.163c0.349-0.253,0.642-0.502,0.879-0.748H85.803z"/>
		<path fill="#D9B67D" d="M105.304,125.626H91.936v-0.771h2.162v-14.378h-2.162v-0.771h8.43v0.771h-2.374v14.378h1.507
			c0.84,0,1.459-0.044,1.858-0.131c0.399-0.088,0.843-0.344,1.329-0.769c0.488-0.424,0.898-0.958,1.235-1.601
			s0.636-1.353,0.896-2.131h0.736L105.304,125.626z"/>
		<path fill="#D9B67D" d="M117.397,110.477v14.378h2.161v0.771h-8.145v-0.771h2.09v-14.378h-2.09v-0.771h8.145v0.771H117.397z"/>
		<path fill="#D9B67D" d="M131.219,109.705l6.31,9.354v-6.85c0-0.72-0.072-1.189-0.214-1.407c-0.143-0.217-0.519-0.326-1.128-0.326
			h-0.748v-0.771h4.832v0.771h-0.558c-0.602,0-0.979,0.091-1.128,0.272c-0.15,0.183-0.226,0.547-0.226,1.093v13.998h-0.855
			l-9.426-13.998v11.503c0,0.642,0.066,1.054,0.201,1.236c0.135,0.182,0.507,0.273,1.116,0.273h0.927v0.771h-5.046v-0.771h0.629
			c0.641,0,1.024-0.107,1.151-0.321s0.189-0.78,0.189-1.699v-10.991c0-0.602-0.057-0.98-0.172-1.135s-0.449-0.231-1.004-0.231
			h-0.865v-0.771H131.219z"/>
		<path fill="#D9B67D" d="M151.948,110.477v14.378h2.161v0.771h-8.145v-0.771h2.09v-14.378h-2.09v-0.771h8.145v0.771H151.948z"/>
		<path fill="#D9B67D" d="M171.688,109.895l0.095,4.452h-0.771c-0.721-2.723-2.026-4.084-3.918-4.084
			c-0.862,0-1.479,0.376-1.852,1.128c-0.373,0.752-0.559,2.279-0.559,4.583c0,4.282,0.135,6.856,0.404,7.723
			c0.27,0.867,0.884,1.3,1.844,1.3c1.966,0,3.41-1.404,4.329-4.214h0.771l-0.249,4.915h-0.771c-0.237-0.324-0.53-0.688-0.878-1.093
			c-1.038,0.823-2.197,1.235-3.479,1.235c-1.662,0-3.142-0.717-4.44-2.149c-1.298-1.433-1.947-3.396-1.947-5.889
			c0-2.47,0.647-4.474,1.941-6.014c1.294-1.539,2.899-2.309,4.814-2.309c1.14,0,2.177,0.388,3.111,1.163
			c0.348-0.253,0.641-0.502,0.878-0.748H171.688z"/>
	</g>
</g>
</svg>
