<?xml version="1.0" encoding="utf-8"?>
<!-- Generator: Adobe Illustrator 16.0.0, SVG Export Plug-In . SVG Version: 6.00 Build 0)  -->
<!DOCTYPE svg PUBLIC "-//W3C//DTD SVG 1.1//EN" "http://www.w3.org/Graphics/SVG/1.1/DTD/svg11.dtd">
<svg version="1.1" id="Layer_1" xmlns="http://www.w3.org/2000/svg" xmlns:xlink="http://www.w3.org/1999/xlink" x="0px" y="0px"
	 width="20px" height="25.581px" viewBox="0 0 20 25.581" enable-background="new 0 0 20 25.581" xml:space="preserve">
<g>
	<path d="M0.007,9.45c0.193,5.021,4.421,8.938,9.444,8.745c1.072-0.042,2.093-0.268,3.036-0.646l1.296,1.994l1.467,2.258
		l1.797,2.766c0.599,0.912,1.655,1.276,2.362,0.812c0.705-0.461,0.792-1.575,0.194-2.488l-0.71-1.09l-1.466-2.258l-2.335-3.593
		c1.995-1.747,3.214-4.344,3.104-7.2c-0.192-5.021-4.421-8.937-9.443-8.744C3.729,0.2-0.186,4.428,0.007,9.45z M2.211,9.365
		c-0.146-3.804,2.82-7.008,6.626-7.154c3.805-0.146,7.008,2.819,7.154,6.626c0.08,2.082-0.774,3.982-2.186,5.302
		c-0.695,0.651-1.524,1.158-2.446,1.478c-0.627,0.218-1.295,0.348-1.994,0.375C5.56,16.137,2.357,13.171,2.211,9.365z"/>
</g>
</svg>
